STARTFONT 2.1
FONT -FontForge-minigage-Regular-R-Normal--12-120-75-75-P-119-ISO8859-1
SIZE 12 75 75
FONTBOUNDINGBOX 10 12 0 -2
COMMENT "Generated by fontforge, http://fontforge.sourceforge.net"
COMMENT "Copyright (c) 2023 Asa Durkee. SIL Open Font License 1.1."
STARTPROPERTIES 33
FOUNDRY "FontForge"
FAMILY_NAME "minigage"
WEIGHT_NAME "Regular"
SLANT "R"
SETWIDTH_NAME "Normal"
ADD_STYLE_NAME ""
PIXEL_SIZE 12
POINT_SIZE 120
RESOLUTION_X 75
RESOLUTION_Y 75
SPACING "P"
AVERAGE_WIDTH 119
CHARSET_REGISTRY "ISO8859"
CHARSET_ENCODING "1"
FONTNAME_REGISTRY ""
CHARSET_COLLECTIONS "ISOLatin1Encoding"
FONT_NAME "minigage"
FACE_NAME "minigage"
COPYRIGHT "Copyright (c) 2023 Asa Durkee. SIL Open Font License 1.1."
FONT_VERSION "001.000"
FONT_ASCENT 10
FONT_DESCENT 2
UNDERLINE_POSITION 0
UNDERLINE_THICKNESS 1
X_HEIGHT 7
CAP_HEIGHT 9
RAW_ASCENT 833
RAW_DESCENT 166
RELATIVE_WEIGHT 40
RELATIVE_SETWIDTH 50
FIGURE_WIDTH 12
AVG_LOWERCASE_WIDTH 120
AVG_UPPERCASE_WIDTH 118
ENDPROPERTIES
CHARS 93
STARTCHAR exclam
ENCODING 33
SWIDTH 1000 0
DWIDTH 12 0
BBX 2 10 5 0
BITMAP
C0
C0
C0
C0
C0
C0
C0
00
C0
C0
ENDCHAR
STARTCHAR quotedbl
ENCODING 34
SWIDTH 1000 0
DWIDTH 12 0
BBX 5 4 3 6
BITMAP
D8
D8
D8
D8
ENDCHAR
STARTCHAR numbersign
ENCODING 35
SWIDTH 1000 0
DWIDTH 12 0
BBX 8 8 2 1
BITMAP
66
FF
FF
66
66
FF
FF
66
ENDCHAR
STARTCHAR dollar
ENCODING 36
SWIDTH 1000 0
DWIDTH 12 0
BBX 8 10 2 0
BITMAP
18
7E
FF
D8
FE
7F
1B
FF
7E
18
ENDCHAR
STARTCHAR percent
ENCODING 37
SWIDTH 1000 0
DWIDTH 12 0
BBX 8 10 2 0
BITMAP
06
E6
AC
EC
18
18
37
35
67
60
ENDCHAR
STARTCHAR ampersand
ENCODING 38
SWIDTH 1000 0
DWIDTH 12 0
BBX 9 10 1 0
BITMAP
3800
7C00
6C00
7C00
3800
7D80
EF80
C600
FF00
7B00
ENDCHAR
STARTCHAR quotesingle
ENCODING 39
SWIDTH 1000 0
DWIDTH 12 0
BBX 2 4 5 6
BITMAP
C0
C0
C0
C0
ENDCHAR
STARTCHAR parenleft
ENCODING 40
SWIDTH 1000 0
DWIDTH 12 0
BBX 5 10 3 0
BITMAP
38
78
E0
C0
C0
C0
C0
E0
78
38
ENDCHAR
STARTCHAR parenright
ENCODING 41
SWIDTH 1000 0
DWIDTH 12 0
BBX 5 10 3 0
BITMAP
E0
F0
38
18
18
18
18
38
F0
E0
ENDCHAR
STARTCHAR asterisk
ENCODING 42
SWIDTH 1000 0
DWIDTH 12 0
BBX 9 8 1 1
BITMAP
6300
6300
3600
FF80
FF80
3600
6300
6300
ENDCHAR
STARTCHAR plus
ENCODING 43
SWIDTH 1000 0
DWIDTH 12 0
BBX 8 8 2 1
BITMAP
18
18
18
FF
FF
18
18
18
ENDCHAR
STARTCHAR comma
ENCODING 44
SWIDTH 1000 0
DWIDTH 12 0
BBX 3 4 4 0
BITMAP
60
60
E0
C0
ENDCHAR
STARTCHAR hyphen
ENCODING 45
SWIDTH 1000 0
DWIDTH 12 0
BBX 5 2 3 4
BITMAP
F8
F8
ENDCHAR
STARTCHAR period
ENCODING 46
SWIDTH 1000 0
DWIDTH 12 0
BBX 2 3 5 1
BITMAP
C0
C0
C0
ENDCHAR
STARTCHAR slash
ENCODING 47
SWIDTH 1000 0
DWIDTH 12 0
BBX 6 10 3 0
BITMAP
0C
0C
18
18
30
30
60
60
C0
C0
ENDCHAR
STARTCHAR zero
ENCODING 48
SWIDTH 1000 0
DWIDTH 12 0
BBX 9 10 1 0
BITMAP
7F00
FF80
C380
C780
CD80
D980
F180
E180
FF80
7F00
ENDCHAR
STARTCHAR one
ENCODING 49
SWIDTH 1000 0
DWIDTH 12 0
BBX 8 10 2 0
BITMAP
18
78
78
18
18
18
18
18
FF
FF
ENDCHAR
STARTCHAR two
ENCODING 50
SWIDTH 1000 0
DWIDTH 12 0
BBX 8 10 2 0
BITMAP
3C
7E
C7
C7
0E
1C
38
70
FF
FF
ENDCHAR
STARTCHAR three
ENCODING 51
SWIDTH 1000 0
DWIDTH 12 0
BBX 8 10 2 0
BITMAP
7E
FF
C3
03
1E
1F
03
C3
FF
7E
ENDCHAR
STARTCHAR four
ENCODING 52
SWIDTH 1000 0
DWIDTH 12 0
BBX 8 10 2 0
BITMAP
66
66
E6
C6
FF
FF
06
06
06
06
ENDCHAR
STARTCHAR five
ENCODING 53
SWIDTH 1000 0
DWIDTH 12 0
BBX 8 10 2 0
BITMAP
FF
FF
C0
C0
FE
FF
03
C3
FF
7E
ENDCHAR
STARTCHAR six
ENCODING 54
SWIDTH 1000 0
DWIDTH 12 0
BBX 8 10 2 0
BITMAP
3C
7E
E0
C0
FE
FF
C3
E7
7E
3C
ENDCHAR
STARTCHAR seven
ENCODING 55
SWIDTH 1000 0
DWIDTH 12 0
BBX 6 10 3 0
BITMAP
FC
FC
18
18
30
30
30
60
60
60
ENDCHAR
STARTCHAR eight
ENCODING 56
SWIDTH 1000 0
DWIDTH 12 0
BBX 8 10 2 0
BITMAP
7E
FF
C3
C3
7E
FF
C3
C3
FF
7E
ENDCHAR
STARTCHAR nine
ENCODING 57
SWIDTH 1000 0
DWIDTH 12 0
BBX 8 10 2 0
BITMAP
3C
7E
E7
C3
FF
7F
03
07
7E
3C
ENDCHAR
STARTCHAR colon
ENCODING 58
SWIDTH 1000 0
DWIDTH 12 0
BBX 2 8 5 1
BITMAP
C0
C0
C0
00
00
C0
C0
C0
ENDCHAR
STARTCHAR semicolon
ENCODING 59
SWIDTH 1000 0
DWIDTH 12 0
BBX 3 9 4 0
BITMAP
60
60
60
00
00
60
60
E0
C0
ENDCHAR
STARTCHAR less
ENCODING 60
SWIDTH 1000 0
DWIDTH 12 0
BBX 5 8 3 1
BITMAP
18
38
70
E0
E0
70
38
18
ENDCHAR
STARTCHAR equal
ENCODING 61
SWIDTH 1000 0
DWIDTH 12 0
BBX 8 6 2 2
BITMAP
FF
FF
00
00
FF
FF
ENDCHAR
STARTCHAR greater
ENCODING 62
SWIDTH 1000 0
DWIDTH 12 0
BBX 5 8 3 1
BITMAP
C0
E0
70
38
38
70
E0
C0
ENDCHAR
STARTCHAR question
ENCODING 63
SWIDTH 1000 0
DWIDTH 12 0
BBX 7 10 2 0
BITMAP
7C
FE
C6
CE
1C
38
30
00
30
30
ENDCHAR
STARTCHAR at
ENCODING 64
SWIDTH 1000 0
DWIDTH 12 0
BBX 9 10 1 0
BITMAP
3E00
7F00
E380
CD80
DD80
DF80
DF00
E000
7F00
3E00
ENDCHAR
STARTCHAR A
ENCODING 65
SWIDTH 750 0
DWIDTH 9 0
BBX 9 10 0 0
BITMAP
0800
0800
1C00
1C00
3600
3600
7F00
7F00
C180
C180
ENDCHAR
STARTCHAR B
ENCODING 66
SWIDTH 1000 0
DWIDTH 12 0
BBX 9 10 1 0
BITMAP
FF00
FF00
C180
C180
FF80
FF00
C180
C180
FF80
FF00
ENDCHAR
STARTCHAR C
ENCODING 67
SWIDTH 1000 0
DWIDTH 12 0
BBX 9 10 1 0
BITMAP
3E00
7F00
E380
C000
C000
C000
C000
E380
7F00
3E00
ENDCHAR
STARTCHAR D
ENCODING 68
SWIDTH 1000 0
DWIDTH 12 0
BBX 9 10 1 0
BITMAP
FE00
FF00
C380
C180
C180
C180
C180
C380
FF00
FE00
ENDCHAR
STARTCHAR E
ENCODING 69
SWIDTH 1000 0
DWIDTH 12 0
BBX 8 10 2 0
BITMAP
FF
FF
C0
C0
F8
F8
C0
C0
FF
FF
ENDCHAR
STARTCHAR H
ENCODING 72
SWIDTH 1000 0
DWIDTH 12 0
BBX 9 10 1 0
BITMAP
C180
C180
C180
C180
FF80
FF80
C180
C180
C180
C180
ENDCHAR
STARTCHAR I
ENCODING 73
SWIDTH 1000 0
DWIDTH 12 0
BBX 8 10 2 0
BITMAP
FF
FF
18
18
18
18
18
18
FF
FF
ENDCHAR
STARTCHAR J
ENCODING 74
SWIDTH 1000 0
DWIDTH 12 0
BBX 9 10 1 0
BITMAP
0180
0180
0180
0180
0180
0180
0180
E380
7F00
3E00
ENDCHAR
STARTCHAR K
ENCODING 75
SWIDTH 1000 0
DWIDTH 12 0
BBX 9 10 1 0
BITMAP
C180
C380
C700
CE00
FC00
FC00
CE00
C700
C380
C180
ENDCHAR
STARTCHAR L
ENCODING 76
SWIDTH 1000 0
DWIDTH 12 0
BBX 9 10 1 0
BITMAP
C000
C000
C000
C000
C000
C000
C000
C000
FF80
FF80
ENDCHAR
STARTCHAR M
ENCODING 77
SWIDTH 1000 0
DWIDTH 12 0
BBX 9 10 1 0
BITMAP
C180
C180
E380
F780
FF80
DD80
C980
C180
C180
C180
ENDCHAR
STARTCHAR N
ENCODING 78
SWIDTH 1000 0
DWIDTH 12 0
BBX 9 10 1 0
BITMAP
C180
C180
E180
F180
F9C1
DD80
CF80
C780
C380
C180
ENDCHAR
STARTCHAR O
ENCODING 79
SWIDTH 1000 0
DWIDTH 12 0
BBX 9 10 0 0
BITMAP
3E00
7F00
E380
C180
C180
C180
C180
E380
7F00
3E00
ENDCHAR
STARTCHAR P
ENCODING 80
SWIDTH 1000 0
DWIDTH 12 0
BBX 9 10 0 0
BITMAP
FE00
FF00
C380
C180
C380
FF00
FE00
C000
C000
C000
ENDCHAR
STARTCHAR Q
ENCODING 81
SWIDTH 1000 0
DWIDTH 12 0
BBX 9 10 0 0
BITMAP
3E00
7F00
E380
C180
C180
CD80
CF80
E700
7F80
3D80
ENDCHAR
STARTCHAR R
ENCODING 82
SWIDTH 83333 0
DWIDTH 12 0
BBX 9 10 1 0
BITMAP
FE00
FF00
C380
C180
C380
FF00
FE00
C700
C380
C180
ENDCHAR
STARTCHAR S
ENCODING 83
SWIDTH 1000 0
DWIDTH 12 0
BBX 9 10 0 0
BITMAP
3E00
7F00
E380
E000
7C00
3F00
0380
E380
7F00
3E00
ENDCHAR
STARTCHAR T
ENCODING 84
SWIDTH 1000 0
DWIDTH 12 0
BBX 8 10 0 0
BITMAP
FF
FF
18
18
18
18
18
18
18
18
ENDCHAR
STARTCHAR U
ENCODING 85
SWIDTH 1000 0
DWIDTH 12 0
BBX 9 10 0 0
BITMAP
C180
C180
C180
C180
C180
C180
C180
E380
7F00
3E00
ENDCHAR
STARTCHAR V
ENCODING 86
SWIDTH 1000 0
DWIDTH 12 0
BBX 9 10 0 0
BITMAP
C180
C180
6300
6300
3600
3600
1C00
1C00
0800
0800
ENDCHAR
STARTCHAR W
ENCODING 87
SWIDTH 1000 0
DWIDTH 12 0
BBX 9 10 0 0
BITMAP
C180
C180
C180
C980
DD80
FF80
F780
E380
C180
C180
ENDCHAR
STARTCHAR X
ENCODING 88
SWIDTH 1000 0
DWIDTH 12 0
BBX 9 10 0 0
BITMAP
C180
E380
7700
3E00
1C00
3E00
7700
E380
C180
C180
ENDCHAR
STARTCHAR Y
ENCODING 89
SWIDTH 1000 0
DWIDTH 12 0
BBX 9 10 0 0
BITMAP
C180
E380
7700
3E00
1C00
0C00
0C00
0C00
0C00
0C00
ENDCHAR
STARTCHAR Z
ENCODING 90
SWIDTH 1000 0
DWIDTH 12 0
BBX 9 10 0 0
BITMAP
FF80
FF80
0380
0700
0E00
1C00
3800
7000
FF80
FF80
ENDCHAR
STARTCHAR bracketleft
ENCODING 91
SWIDTH 1000 0
DWIDTH 12 0
BBX 5 10 3 0
BITMAP
F8
F8
C0
C0
C0
C0
C0
C0
F8
F8
ENDCHAR
STARTCHAR backslash
ENCODING 92
SWIDTH 1000 0
DWIDTH 12 0
BBX 6 10 3 0
BITMAP
C0
C0
60
60
30
30
18
18
0C
0C
ENDCHAR
STARTCHAR bracketright
ENCODING 93
SWIDTH 1000 0
DWIDTH 12 0
BBX 5 10 3 0
BITMAP
F8
F8
18
18
18
18
18
18
F8
F8
ENDCHAR
STARTCHAR asciicircum
ENCODING 94
SWIDTH 1000 0
DWIDTH 12 0
BBX 7 5 2 5
BITMAP
10
38
7C
EE
44
ENDCHAR
STARTCHAR underscore
ENCODING 95
SWIDTH 1000 0
DWIDTH 12 0
BBX 9 2 1 0
BITMAP
FF80
FF80
ENDCHAR
STARTCHAR grave
ENCODING 96
SWIDTH 1000 0
DWIDTH 12 0
BBX 4 4 4 6
BITMAP
C0
E0
70
30
ENDCHAR
STARTCHAR a
ENCODING 97
SWIDTH 1000 0
DWIDTH 12 0
BBX 9 8 0 0
BITMAP
7F00
FF80
0180
7F80
FF80
C180
FF80
7F80
ENDCHAR
STARTCHAR b
ENCODING 98
SWIDTH 1000 0
DWIDTH 12 0
BBX 9 10 0 0
BITMAP
C000
C000
FF00
FF80
C180
C180
C180
C180
FF80
FF00
ENDCHAR
STARTCHAR c
ENCODING 99
SWIDTH 1000 0
DWIDTH 12 0
BBX 9 8 0 0
BITMAP
7F80
FF80
C000
C000
C000
C000
FF80
7F80
ENDCHAR
STARTCHAR d
ENCODING 100
SWIDTH 1000 0
DWIDTH 12 0
BBX 9 10 0 0
BITMAP
0180
0180
7F80
FF80
C180
C180
C180
C180
FF80
7F80
ENDCHAR
STARTCHAR e
ENCODING 101
SWIDTH 1000 0
DWIDTH 12 0
BBX 9 8 0 0
BITMAP
7F00
FF80
C180
FF80
FF00
C000
FF80
7F00
ENDCHAR
STARTCHAR f
ENCODING 102
SWIDTH 1000 0
DWIDTH 12 0
BBX 9 9 0 0
BITMAP
3F00
7F80
6000
6000
FC00
F800
6000
6000
6000
ENDCHAR
STARTCHAR g
ENCODING 103
SWIDTH 1000 0
DWIDTH 12 0
BBX 9 9 0 -1
BITMAP
7F00
FF80
C180
C180
FF80
7F80
0180
FF80
7F00
ENDCHAR
STARTCHAR h
ENCODING 104
SWIDTH 1000 0
DWIDTH 12 0
BBX 9 9 0 0
BITMAP
C000
DF00
FF80
E180
C180
C180
C180
C180
C180
ENDCHAR
STARTCHAR i
ENCODING 105
SWIDTH 1000 0
DWIDTH 12 0
BBX 4 10 3 0
BITMAP
30
00
F0
F0
30
30
30
30
30
30
ENDCHAR
STARTCHAR j
ENCODING 106
SWIDTH 1000 0
DWIDTH 12 0
BBX 5 12 3 -2
BITMAP
18
00
78
78
18
18
18
18
18
38
70
E0
ENDCHAR
STARTCHAR k
ENCODING 107
SWIDTH 1000 0
DWIDTH 12 0
BBX 9 10 0 0
BITMAP
C000
C000
C180
C380
C700
FE00
FE00
C700
C380
C180
ENDCHAR
STARTCHAR l
ENCODING 108
SWIDTH 1000 0
DWIDTH 12 0
BBX 4 10 3 0
BITMAP
E0
E0
60
60
60
60
60
60
70
70
ENDCHAR
STARTCHAR m
ENCODING 109
SWIDTH 1000 0
DWIDTH 12 0
BBX 9 8 0 0
BITMAP
DB00
FF80
ED80
CD80
CD80
CD80
CD80
CD80
ENDCHAR
STARTCHAR n
ENCODING 110
SWIDTH 1000 0
DWIDTH 12 0
BBX 9 8 0 0
BITMAP
DF00
FF80
E180
C180
C180
C180
C180
C180
ENDCHAR
STARTCHAR o
ENCODING 111
SWIDTH 1000 0
DWIDTH 12 0
BBX 9 8 0 0
BITMAP
7F00
FF80
C180
C180
C180
C180
FF80
7F00
ENDCHAR
STARTCHAR p
ENCODING 112
SWIDTH 1000 0
DWIDTH 12 0
BBX 9 9 0 -1
BITMAP
DF00
FF80
C180
C180
C180
C180
FF80
FF00
C000
ENDCHAR
STARTCHAR q
ENCODING 113
SWIDTH 1000 0
DWIDTH 12 0
BBX 9 9 0 -1
BITMAP
7D80
FF80
C180
C180
C180
C180
FF80
7F80
0180
ENDCHAR
STARTCHAR r
ENCODING 114
SWIDTH 1000 0
DWIDTH 12 0
BBX 9 8 0 0
BITMAP
DF00
FF80
E180
C000
C000
C000
C000
C000
ENDCHAR
STARTCHAR s
ENCODING 115
SWIDTH 1000 0
DWIDTH 12 0
BBX 9 8 0 0
BITMAP
7F00
FF80
C000
FF00
7F80
0180
FF80
7F00
ENDCHAR
STARTCHAR t
ENCODING 116
SWIDTH 1000 0
DWIDTH 12 0
BBX 9 9 0 0
BITMAP
6000
FF80
FF80
6000
6000
6000
6000
7F80
3F00
ENDCHAR
STARTCHAR u
ENCODING 117
SWIDTH 1000 0
DWIDTH 12 0
BBX 9 8 0 0
BITMAP
C180
C180
C180
C180
C180
C380
FF80
7D80
ENDCHAR
STARTCHAR v
ENCODING 118
SWIDTH 1000 0
DWIDTH 12 0
BBX 9 8 0 0
BITMAP
C180
C180
6300
6300
3600
3600
1C00
1C00
ENDCHAR
STARTCHAR w
ENCODING 119
SWIDTH 1000 0
DWIDTH 12 0
BBX 9 7 0 0
BITMAP
CD80
CD80
CD80
CD80
CD80
FF80
7700
ENDCHAR
STARTCHAR x
ENCODING 120
SWIDTH 1000 0
DWIDTH 12 0
BBX 9 8 0 0
BITMAP
C180
E380
7700
3E00
3E00
7700
E380
C180
ENDCHAR
STARTCHAR y
ENCODING 121
SWIDTH 1000 0
DWIDTH 12 0
BBX 9 9 0 -1
BITMAP
C180
C180
C180
C180
FF80
7F80
0180
FF80
7F00
ENDCHAR
STARTCHAR z
ENCODING 122
SWIDTH 1000 0
DWIDTH 12 0
BBX 9 8 0 0
BITMAP
FF80
FF00
0E00
1C00
3800
7000
FF80
FF80
ENDCHAR
STARTCHAR braceleft
ENCODING 123
SWIDTH 1000 0
DWIDTH 12 0
BBX 6 10 2 0
BITMAP
1C
3C
30
30
F0
F0
30
30
3C
1C
ENDCHAR
STARTCHAR bar
ENCODING 124
SWIDTH 1000 0
DWIDTH 12 0
BBX 2 10 5 0
BITMAP
C0
C0
C0
C0
C0
C0
C0
C0
C0
C0
ENDCHAR
STARTCHAR braceright
ENCODING 125
SWIDTH 1000 0
DWIDTH 12 0
BBX 6 10 4 0
BITMAP
E0
F0
30
30
3C
3C
30
30
E0
E0
ENDCHAR
STARTCHAR asciitilde
ENCODING 126
SWIDTH 1000 0
DWIDTH 12 0
BBX 8 4 2 6
BITMAP
73
FB
DF
CE
ENDCHAR
STARTCHAR copyright
ENCODING 169
SWIDTH 1000 0
DWIDTH 12 0
BBX 8 10 2 0
BITMAP
18
3C
66
DB
D3
D3
DB
66
3C
18
ENDCHAR
ENDFONT
